<?xml version="1.0" encoding="UTF-8"?>
<svg xmlns="http://www.w3.org/2000/svg" viewBox="0 0 32 32" width="32" height="32">
  <defs>
    <style>
      .st0 { fill: #1e3a29; }
      .st1 { fill: #cba05a; }
    </style>
  </defs>
  <rect class="st0" width="32" height="32" rx="1.3" ry="1.3"/>
  <path class="st1" d="M7.2,12.4l1.9-3.3c2-1.5,4-2.5,6.1-3.2c2.1-0.6,3.9-0.9,5.4-0.9c1.2,0,2.4,0.3,3.5,0.8c1.1,0.5,2,1.2,2.5,2c0.5,0.8,0.8,1.5,0.8,2.2c0,0.7-0.3,1.6-0.9,2.7c-0.6,1.1-1.9,2.1-3.7,3.1c-1.9,1-4.3,1.8-7.1,2.2c2.4,1.4,4.2,2.9,5.5,4.6c-0.2,0.5-0.7,2-1.6,4.5c-0.6-0.5-1.2-1.1-1.9-1.7c-0.7-0.6-1.4-1.2-2.1-1.7c-0.7-0.6-1.9-1.6-3.6-2.9c-1.9,2.7-3.4,4-4.5,4c-0.6,0-1.3-0.4-2-1.2c-0.2-0.2-0.5-0.4-0.8-0.7c0.2-0.3,0.4-0.9,0.8-1.5c0.3-0.6,0.5-1,0.7-1.4l3.2,1.7c0.6-0.7,1.5-1.8,2.5-3.1c0.9-1.2,1.9-2.7,3-4.3l3.2-5.1l-0.9,0c-0.7,0-1.5,0.1-2.3,0.2c-0.8,0.1-1.6,0.4-2.5,0.6c-1.8,0.6-3.5,1.4-5.2,2.5ZM20.9,9.6c-1.3,1.3-3.3,3.7-6,7.2c2.5-0.3,5.2-2,8-5.1c-0.4-0.9-1.1-1.6-2.1-2.1Z"/>
</svg>
