<?xml version="1.0" ?>
<svg width="24" height="24" viewBox="0 0 64 64" xmlns="http://www.w3.org/2000/svg">
    <!-- Beer crate boxes with website colors -->
    <rect height="14" rx="2" fill="#1e3a29" width="58" x="3" y="32"/>
    <circle cx="10" cy="39" r="2" fill="#d4af37"/>
    <circle cx="54" cy="39" r="2" fill="#d4af37"/>
    
    <rect height="14" rx="2" fill="#1e3a29" width="58" x="3" y="48"/>
    <circle cx="10" cy="55" r="2" fill="#d4af37"/>
    <circle cx="54" cy="55" r="2" fill="#d4af37"/>
    
    <!-- Beer bottles with simplified design -->
    <rect x="5" y="8" width="4" height="20" rx="1" fill="#2d5016" opacity="0.8"/>
    <rect x="5" y="2" width="4" height="6" rx="1" fill="#d4af37"/>
    
    <rect x="24" y="8" width="4" height="20" rx="1" fill="#2d5016" opacity="0.8"/>
    <rect x="24" y="2" width="4" height="6" rx="1" fill="#d4af37"/>
    
    <rect x="43" y="8" width="4" height="20" rx="1" fill="#2d5016" opacity="0.8"/>
    <rect x="43" y="2" width="4" height="6" rx="1" fill="#d4af37"/>
    
    <!-- Additional bottles for second row -->
    <rect x="15" y="8" width="4" height="20" rx="1" fill="#2d5016" opacity="0.8"/>
    <rect x="15" y="2" width="4" height="6" rx="1" fill="#d4af37"/>
    
    <rect x="34" y="8" width="4" height="20" rx="1" fill="#2d5016" opacity="0.8"/>
    <rect x="34" y="2" width="4" height="6" rx="1" fill="#d4af37"/>
    
    <rect x="53" y="8" width="4" height="20" rx="1" fill="#2d5016" opacity="0.8"/>
    <rect x="53" y="2" width="4" height="6" rx="1" fill="#d4af37"/>
</svg>