<?xml version="1.0" encoding="UTF-8"?>
<svg id="Laag_1" xmlns="http://www.w3.org/2000/svg" version="1.1" viewBox="0 0 264.39 117.46">
  <!-- Generator: Adobe Illustrator 29.5.1, SVG Export Plug-In . SVG Version: 2.1.0 Build 141)  -->
  <defs>
    <style>
      .st0 {
        fill: #f4f9f3;
      }
    </style>
  </defs>
  <path class="st0" d="M27.81,19.69l4.96-8.06c7.5-2.6,14.42-3.91,20.75-3.91,3.39,0,6.29.42,8.72,1.27,2.42.86,4.22,1.78,5.37,2.76,1.16,1.01,1.73,2.04,1.73,3.1,0,2.12-1.53,4.73-4.59,7.84-1.04,1.04-2.22,2.06-3.53,3.04-1.31.98-2.75,1.95-4.32,2.88-1.57.94-3.35,1.88-5.33,2.84,1.16-.11,2.07-.17,2.73-.17,1.77,0,3.68.26,5.71.78,2,.52,3.65,1.11,4.96,1.76,1.33.67,2.24,1.37,2.71,2.1.49.75.73,1.74.73,2.98,0,2.46-.71,4.84-2.12,7.15-1.42,2.31-3.17,4.07-5.25,5.27-2.08,1.2-4.1,1.81-6.05,1.81-2.47,0-5.71-.68-9.69-2.05l-.98-3.74,3.96-7.25c.5,1.92,1.89,3.46,4.15,4.61,2.23,1.16,4.41,1.73,6.54,1.73.83,0,1.98-.1,3.44-.29-.83-3.09-2.66-5.39-5.49-6.88-2.83-1.46-5.79-2.2-8.89-2.2-1.53,0-3.53.12-6.01.37-.6,3.22-2.7,6.27-6.3,9.13-3.58,2.85-6.84,4.27-9.79,4.27-3.48,0-6.95-3.59-10.4-10.77.81-5.26,1.51-8.7,2.1-10.33,2.82,4.26,5.72,7.46,8.72,9.59,3.01,2.13,5.66,3.2,7.93,3.2,1.12,0,2.03-.28,2.73-.83.7-.54,1.16-1.19,1.39-1.95.2-.76.63-3.68,1.32-8.74l1.78-13.77c-3.39.24-7.95,1.06-13.7,2.44ZM45.83,17.03l-3,16.21c1.66-.98,4.25-2.62,7.76-4.93,1.07-.72,2.45-1.6,4.11-2.66,1.67-1.06,3.05-1.9,4.14-2.54,1.99-1.16,3.55-2.14,4.69-2.95-.88-1.03-1.69-1.76-2.44-2.2-.7-.42-1.77-.79-3.22-1.1-1.4-.31-3.04-.46-4.93-.46-2.17,0-4.53.21-7.1.63Z"/>
  <path class="st0" d="M72.17,26.62l.17-7.03,7.4.68.42,5.64c.39-1.11.74-2.18,1.05-3.22.24-.86.51-1.53.81-2,.26-.46.72-.85,1.39-1.2.63-.34,1.4-.51,2.29-.51,1.01,0,2.12.24,3.34.71l-.81,3.1c-.41,1.68-.92,3.53-1.54,5.57-1.95-1.29-3.27-2.03-3.96-2.22-1.3,1.71-2.08,3-2.32,3.88.1,1.46.2,2.6.32,3.39,1.46.52,2.76.78,3.88.78-.68,1.92-1.52,4.02-2.51,6.3-3.39,0-5.46-.2-6.23-.61-.8-.39-1.63-1.06-2.49-2-.88-.96-1.32-2.78-1.32-5.47,0-1.76.03-3.69.1-5.79Z"/>
  <path class="st0" d="M108.55,19.98l-1.32,2.25c1.22.37,2.21,1.16,2.98,2.37.78,1.22,1.17,2.73,1.17,4.52s-.33,3.33-1,4.81c-.68,1.46-1.41,2.53-2.17,3.2-.78.7-2.12,1.52-4.03,2.47-.34.16-.82.46-1.44.9-.47.36-.88.63-1.22.81-3.17-.02-6.06-.91-8.67-2.69-2.6-1.73-3.91-3.91-3.91-6.54,0-4.3,2.97-8.41,8.91-12.35,2.72.24,5.02.37,6.91.37,1.4,0,2.66-.03,3.78-.1ZM98.08,23.91c-.86,1.45-1.29,2.95-1.29,4.49,0,4.22,2.16,6.79,6.47,7.71.41-1.63.61-3.22.61-4.79,0-2.51-.59-4.3-1.78-5.4-1.17-1.07-2.51-1.75-4-2.03Z"/>
  <path class="st0" d="M115.71,20.84c1.92-.13,4.86-.78,8.81-1.95-.21.54-.44,1.65-.68,3.34-.15,1.01-.34,2.15-.59,3.42-.24,1.32-.37,2.49-.37,3.52s.2,2.1.61,3.08c.42,1.09.99,2.33,1.71,3.71,1.51-1.2,2.6-2.24,3.25-3.1.02-.47.02-1.38.02-2.73,0-4.54-.2-7.85-.61-9.94.63.11,1.22.17,1.76.17,2.03,0,4.39-.21,7.06-.63-.15,2.51-.22,5.57-.22,9.18,0,2.1.07,5.63.22,10.6-.93.16-2.74.51-5.44,1.05l-3.37.66c.29-1.55.44-2.96.44-4.25-1.25.62-3.34,1.91-6.25,3.88-2.28-.59-3.72-1.06-4.32-1.42-.63-.34-1.25-1.06-1.83-2.15-.59-1.11-.88-2.69-.88-4.74,0-4.04.23-7.93.68-11.69Z"/>
  <path class="st0" d="M142.85,19.2c2.08.29,3.66.65,4.74,1.07,1.06.44,1.99,1.71,2.78,3.81.23.6.48,1.43.76,2.49.28,1.06.55,2.28.83,3.66.28,1.38.54,2.92.81,4.61,1.58-3.71,3-7.68,4.27-11.91l3.71-.9,2.15-.49c.67.65,1.35,1.55,2.05,2.71.67,1.09,1.15,2.06,1.44,2.91.26.73.6,2.13,1.03,4.2.24,1.24.54,2.47.88,3.71,2.07-4.79,3.1-7.95,3.1-9.5,0-1.06-.47-1.94-1.42-2.64,3.74-1.94,5.75-2.93,6.03-2.98,1.64,1.25,2.47,2.47,2.47,3.66,0,1.37-.24,2.9-.73,4.59-.52,1.71-.9,2.67-1.12,2.88-.33.29-1.21.97-2.66,2.03l-3.12,2.34c-.21.29-1.06,1.81-2.54,4.54-3,.59-5.23,1.2-6.71,1.83-.77-4.18-1.8-7.66-3.1-10.42-2.43,2.86-4.29,5.73-5.59,8.59-1.3.2-2.49.45-3.55.76-1.07.31-2.05.7-2.97,1.17l-1.59-6.59c-.91-3.89-1.56-6.18-1.95-6.88-.42-.76-1.2-1.3-2.32-1.61,1.33-3.91,2.12-6.45,2.34-7.64Z"/>
  <path class="st0" d="M180.67,24.01l5.49-4.66,6.57.49c2.12.18,3.61.71,4.49,1.59.91.91,1.37,1.9,1.37,2.98,0,.47-.07,1.08-.2,1.83-.18.88-.37,2.19-.56,3.93-2.23,1.16-3.92,1.83-5.08,2.03-1.17.2-2.29.29-3.37.29-.41,0-.91-.04-1.51-.12,1.59,1.99,3.15,2.98,4.66,2.98,1.79,0,3.4-.68,4.83-2.03h.2c-1.63,5.08-4.64,7.62-9.03,7.62-2.28,0-3.93-.32-4.96-.95s-1.81-1.55-2.34-2.76c-.55-1.17-.83-3.39-.83-6.67l.12-4.17.15-2.37ZM188.04,24.26l-.63,5.96c1.42,0,2.94-.05,4.57-.15.03-1.07.05-1.59.05-1.54,0-1.38-.37-2.42-1.1-3.12-.75-.72-1.71-1.1-2.88-1.15Z"/>
  <path class="st0" d="M202.03,26.62l.17-7.03,7.4.68.42,5.64c.39-1.11.74-2.18,1.05-3.22.24-.86.51-1.53.81-2,.26-.46.72-.85,1.39-1.2.63-.34,1.4-.51,2.29-.51,1.01,0,2.12.24,3.34.71l-.81,3.1c-.41,1.68-.92,3.53-1.54,5.57-1.95-1.29-3.27-2.03-3.96-2.22-1.3,1.71-2.08,3-2.32,3.88.1,1.46.2,2.6.32,3.39,1.46.52,2.76.78,3.88.78-.68,1.92-1.52,4.02-2.51,6.3-3.39,0-5.46-.2-6.23-.61-.8-.39-1.63-1.06-2.49-2-.88-.96-1.32-2.78-1.32-5.47,0-1.76.03-3.69.1-5.79Z"/>
  <path class="st0" d="M219.22,26.28l.66-3.05c3.27-.54,7.02-1.81,11.25-3.81v4.3l-.07,1.83c0,.24,0,.46.02.66.02.54.02,1.28.02,2.22,0,.42,0,.77.02,1.03l.17,4.3c.03.93.15,3.01.37,6.25-3.35.59-6.27,1.03-8.74,1.32.23-2.05.34-5.1.34-9.16l-.1-6.13c-.68.28-1.42.42-2.2.42-.59,0-1.17-.06-1.76-.17ZM226.45,8.29c1.22,0,2.28.42,3.17,1.27.88.85,1.32,1.92,1.32,3.22,0,1.22-.44,2.27-1.32,3.15-.9.88-1.95,1.32-3.17,1.32s-2.27-.44-3.15-1.32c-.88-.86-1.32-1.91-1.32-3.15s.44-2.29,1.32-3.17c.86-.88,1.91-1.32,3.15-1.32Z"/>
  <path class="st0" d="M238.63,21.11l9.3-.61c-.47,2.29-.78,3.83-.93,4.6-.15.77-.33,1.83-.54,3.16-.29,2.1-.52,4.44-.68,7.01-.23,3.37-.47,5.62-.73,6.76-.26,1.16-.75,2.36-1.46,3.61-.78,1.32-2.56,3.79-5.35,7.42-2.02-.18-3.91-.52-5.69-1.03l-.66-5.13,2.37-4.13,2.93,1.42c.11-1.64.2-4.22.24-7.74.05-3.76.17-6.88.38-9.38s.48-4.48.82-5.98ZM242.73,8.61c1.2,0,2.26.43,3.17,1.29.89.85,1.34,1.91,1.34,3.2s-.44,2.29-1.32,3.17-1.96,1.34-3.2,1.34-2.29-.45-3.17-1.34c-.88-.88-1.32-1.94-1.32-3.17s.44-2.29,1.32-3.17,1.94-1.32,3.17-1.32Z"/>
  <path class="st0" d="M59.69,78.18l4-6.98c4.1-3.12,8.31-5.32,12.62-6.59,4.33-1.25,8.06-1.88,11.18-1.88,2.49,0,4.89.54,7.2,1.61,2.34,1.09,4.08,2.47,5.22,4.13,1.14,1.68,1.71,3.21,1.71,4.59,0,1.56-.63,3.43-1.88,5.62-1.29,2.21-3.88,4.38-7.79,6.49-3.96,2.17-8.87,3.7-14.75,4.59,4.93,2.93,8.75,6.09,11.45,9.47-.33,1.14-1.46,4.26-3.39,9.35-1.22-1.12-2.52-2.28-3.91-3.48-1.38-1.2-2.81-2.4-4.27-3.61-1.46-1.21-3.97-3.26-7.52-6.14-3.92,5.57-7.02,8.35-9.28,8.35-1.27,0-2.66-.82-4.17-2.47-.42-.47-.95-.94-1.59-1.39.34-.72.91-1.79,1.71-3.22.63-1.16,1.14-2.12,1.51-2.91l6.67,3.44c1.32-1.53,3.02-3.71,5.1-6.54,1.89-2.57,3.93-5.55,6.13-8.94l6.74-10.5-1.83-.05c-1.55,0-3.15.16-4.81.46-1.66.31-3.39.76-5.2,1.34-3.66,1.21-7.28,2.95-10.86,5.25ZM88.01,72.17c-2.75,2.8-6.88,7.79-12.4,14.97,5.22-.57,10.78-4.13,16.67-10.67-.81-1.86-2.24-3.29-4.27-4.3Z"/>
  <path class="st0" d="M119.5,74.98l-1.32,2.25c1.22.38,2.21,1.16,2.98,2.37.78,1.22,1.17,2.73,1.17,4.52s-.33,3.33-1,4.81c-.68,1.46-1.41,2.53-2.17,3.2-.78.7-2.12,1.52-4.03,2.47-.34.16-.82.46-1.44.9-.47.36-.88.63-1.22.81-3.17-.02-6.06-.91-8.67-2.69-2.6-1.72-3.91-3.91-3.91-6.54,0-4.3,2.97-8.41,8.91-12.35,2.72.24,5.02.37,6.91.37,1.4,0,2.66-.03,3.78-.1ZM109.03,78.91c-.86,1.45-1.29,2.95-1.29,4.49,0,4.22,2.16,6.79,6.47,7.71.41-1.63.61-3.22.61-4.79,0-2.51-.59-4.3-1.78-5.4-1.17-1.07-2.51-1.75-4-2.03Z"/>
  <path class="st0" d="M126.8,65.71l4.79-1.22,3.61-.98-1.03,18.02-.37,7.08c1.2.86,2.56,1.73,4.08,2.61v.17c-1.94,1.81-3.56,3.59-4.88,5.35-2.25-.47-3.92-1.44-5.03-2.92-1.11-1.47-1.66-3.46-1.66-5.95,0-.99.05-2.62.15-4.88.1-2.18.21-7.94.34-17.29Z"/>
  <path class="st0" d="M161.42,95l-8.57,1.56c.02-.52.02-1.13.02-1.83,0-2.6-.21-5.19-.63-7.76-.55,1.04-1.68,2.51-3.37,4.39-1.81,2.02-3.14,3.59-4,4.71-1.66-.5-3.04-1-4.13-1.49-.42-2.51-.63-5.27-.63-8.3,0-1.86.27-3.43.81-4.71.55-1.3,1.49-2.66,2.81-4.08s2.74-2.63,4.27-3.64c1.06.05,2.64.36,4.76.93.13-3.48.2-6.75.2-9.81,4.72-.88,7.58-1.43,8.57-1.66-.59,6.56-.88,13.67-.88,21.34,0,1.89.07,3.73.21,5.52.14,1.79.33,3.4.57,4.83ZM147.48,79.21l.24,10.25c.08-.08.16-.16.23-.23.07-.07.13-.13.18-.18.11-.2.27-.45.48-.77.2-.32.39-.61.55-.89l3.76-6.62c-1.55-.72-3.36-1.24-5.44-1.56Z"/>
  <path class="st0" d="M166.25,75.84c1.92-.13,4.86-.78,8.81-1.95-.21.54-.44,1.65-.68,3.34-.15,1.01-.34,2.15-.59,3.42-.24,1.32-.37,2.49-.37,3.52s.2,2.1.61,3.08c.42,1.09.99,2.33,1.71,3.71,1.51-1.2,2.6-2.24,3.25-3.1.02-.47.02-1.38.02-2.73,0-4.54-.2-7.85-.61-9.94.63.11,1.22.17,1.76.17,2.03,0,4.39-.21,7.06-.63-.15,2.51-.22,5.57-.22,9.18,0,2.1.07,5.63.22,10.6-.93.16-2.74.51-5.44,1.05l-3.37.66c.29-1.55.44-2.96.44-4.25-1.25.62-3.34,1.91-6.25,3.88-2.28-.59-3.72-1.06-4.32-1.42-.63-.34-1.25-1.06-1.83-2.15-.59-1.11-.88-2.69-.88-4.74,0-4.04.23-7.93.68-11.69Z"/>
  <path class="st0" d="M197.7,74.1c3.29.08,5.64.29,7.06.63,1.51.38,2.77,1.16,3.76,2.37.99,1.24,1.49,2.8,1.49,4.69-2.54.42-4.94,1.07-7.2,1.93-.37-1.81-1.35-2.91-2.93-3.32-.29,2.95-.44,4.97-.44,6.08,0,.81.24,1.48.71,2,.47.52,1.22.96,2.25,1.32,1.06.39,2.02.59,2.88.59,1.37,0,2.66-.8,3.88-2.39l.1.1c-.94,2.65-2.12,4.59-3.52,5.81-1.38,1.22-3.45,1.83-6.2,1.83-2.05,0-3.7-.42-4.96-1.25-1.24-.83-2.07-1.85-2.49-3.05-.44-1.2-.66-2.8-.66-4.79s.08-4.6.24-7.64c1.89-1.76,3.9-3.39,6.03-4.91Z"/>
</svg>