<?xml version="1.0" encoding="UTF-8"?>
<svg id="Laag_1" xmlns="http://www.w3.org/2000/svg" version="1.1" viewBox="0 0 283.46 283.46">
  <!-- Generator: Adobe Illustrator 29.5.1, SVG Export Plug-In . SVG Version: 2.1.0 Build 141)  -->
  <defs>
    <style>
      .st0 {
        fill: #1e3a29;
      }

      .st1 {
        fill: #cba05a;
      }
    </style>
  </defs>
  <rect class="st0" x="-.46" y="-.46" width="283.93" height="283.93" rx="11.13" ry="11.13"/>
  <path class="st1" d="M63.69,110.04l16.99-29.62c17.4-13.26,35.25-22.58,53.54-27.96,18.37-5.32,34.18-7.97,47.43-7.97,10.56,0,20.75,2.28,30.55,6.84,9.94,4.63,17.33,10.46,22.16,17.5,4.83,7.11,7.25,13.6,7.25,19.47,0,6.63-2.66,14.57-7.97,23.82-5.45,9.39-16.47,18.57-33.04,27.55-16.78,9.18-37.63,15.67-62.56,19.47,20.92,12.43,37.11,25.82,48.57,40.18-1.38,4.83-6.18,18.06-14.4,39.67-5.18-4.76-10.7-9.68-16.57-14.76-5.87-5.07-11.91-10.19-18.12-15.33-6.21-5.14-16.85-13.83-31.9-26.05-16.64,23.61-29.76,35.42-39.36,35.42-5.39,0-11.29-3.49-17.71-10.46-1.8-2-4.04-3.97-6.73-5.9,1.45-3.04,3.87-7.6,7.25-13.67,2.69-4.9,4.83-9.01,6.42-12.32l28.27,14.6c5.59-6.49,12.81-15.74,21.65-27.75,8.01-10.91,16.67-23.54,26-37.91l28.58-44.53-7.77-.21c-6.56,0-13.36.66-20.4,1.97-7.04,1.31-14.4,3.21-22.06,5.7-15.54,5.11-30.9,12.53-46.09,22.27ZM183.83,84.56c-11.67,11.88-29.21,33.04-52.61,63.49,22.16-2.42,45.74-17.5,70.74-45.26-3.45-7.87-9.49-13.95-18.12-18.23Z"/>
</svg>